<svg width="20" height="21" viewBox="0 0 20 21" fill="none" xmlns="http://www.w3.org/2000/svg"><path fillRule="evenodd" clipRule="evenodd" d="M2 0H18C19.1046 0 20 0.940202 20 2.1V18.9C20 20.0598 19.1046 21 18 21H2C0.89543 21 0 20.0598 0 18.9V2.1C0 0.940202 0.89543 0 2 0ZM2 1C1.44772 1 1 1.44772 1 2V19C1 19.5523 1.44772 20 2 20H18C18.5523 20 19 19.5523 19 19V2C19 1.44771 18.5523 1 18 1H2ZM7 10.3749H8.86694V16.5926H10.8669V10.3749H12.8494V8.30085H10.8669V7.25926C10.8669 6.68652 11.3147 6.22222 11.8669 6.22222H12.8669V4.14815H11.8669C10.2101 4.14815 8.86694 5.54104 8.86694 7.25926V8.30085H7V10.3749Z" /></svg>