<svg width="20" height="21" viewBox="0 0 20 21" fill="none" xmlns="http://www.w3.org/2000/svg"><path fillRule="evenodd" clipRule="evenodd" d="M2 0H18C19.1046 0 20 0.940202 20 2.1V18.9C20 20.0598 19.1046 21 18 21H2C0.89543 21 0 20.0598 0 18.9V2.1C0 0.940202 0.89543 0 2 0ZM2 1C1.44772 1 1 1.44772 1 2V19C1 19.5523 1.44772 20 2 20H18C18.5523 20 19 19.5523 19 19V2C19 1.44771 18.5523 1 18 1H2ZM10 15.5556C7.23858 15.5556 5 13.2341 5 10.3704C5 7.50668 7.23858 5.18519 10 5.18519C12.7614 5.18519 15 7.50668 15 10.3704C15 13.2341 12.7614 15.5556 10 15.5556ZM10 13.4815C11.6569 13.4815 13 12.0886 13 10.3704C13 8.65215 11.6569 7.25926 10 7.25926C8.34315 7.25926 7 8.65215 7 10.3704C7 12.0886 8.34315 13.4815 10 13.4815ZM18 4C18 5.10457 17.1046 6 16 6C14.8954 6 14 5.10457 14 4C14 2.89543 14.8954 2 16 2C17.1046 2 18 2.89543 18 4Z" /></svg>