<svg width="20" height="21" viewBox="0 0 20 21" fill="none" xmlns="http://www.w3.org/2000/svg"><path fillRule="evenodd" clipRule="evenodd" d="M2 0.00012207H18C19.1046 0.00012207 20 0.940324 20 2.10012V18.9001C20 20.0599 19.1046 21.0001 18 21.0001H2C0.89543 21.0001 0 20.0599 0 18.9001V2.10012C0 0.940324 0.89543 0.00012207 2 0.00012207ZM2 1C1.44772 1 1 1.44772 1 2V19C1 19.5523 1.44772 20 2 20H18C18.5523 20 19 19.5523 19 19V2C19 1.44771 18.5523 1 18 1H2ZM11 7.25938C10.4823 7.25938 9.93525 7.4235 9.45215 7.72828L9 7.25938H8V14.5186H10V10.3705C10 9.77342 10.594 9.33345 11 9.33345H12C12.406 9.33345 13 9.77342 13 10.3705V14.5186H15V10.3705C15 8.44904 13.394 7.25938 12 7.25938H11ZM6 6.22235C6.55228 6.22235 7 5.75805 7 5.18531C7 4.61257 6.55228 4.14827 6 4.14827C5.44772 4.14827 5 4.61257 5 5.18531C5 5.75805 5.44772 6.22235 6 6.22235ZM5 7.25938V14.5186H7V7.25938H5Z" /></svg>