<svg width="20" height="21" viewBox="0 0 20 21" fill="none" xmlns="http://www.w3.org/2000/svg"><path fillRule="evenodd" clipRule="evenodd" d="M18 0H2C0.89543 0 0 0.940202 0 2.1V18.9C0 20.0598 0.89543 21 2 21H18C19.1046 21 20 20.0598 20 18.9V2.1C20 0.940202 19.1046 0 18 0ZM1 2C1 1.44772 1.44772 1 2 1H18C18.5523 1 19 1.44771 19 2V19C19 19.5523 18.5523 20 18 20H2C1.44772 20 1 19.5523 1 19V2Z" /><path fillRule="evenodd" clipRule="evenodd" d="M17 6.30203C16.4853 6.52309 15.9314 6.67197 15.3504 6.73919C15.9435 6.39541 16.399 5.85132 16.6132 5.20302C16.0588 5.52153 15.4433 5.75207 14.7895 5.87704C14.2655 5.33746 13.5184 5 12.693 5C11.1069 5 9.82081 6.24338 9.82081 7.77684C9.82081 7.9943 9.84648 8.20634 9.89547 8.40981C7.50817 8.29431 5.39197 7.18854 3.97527 5.50845C3.72795 5.91855 3.58656 6.39542 3.58656 6.90432C3.58656 7.86753 4.09286 8.7175 4.86421 9.21557C4.39291 9.20114 3.95054 9.07616 3.56276 8.86818V8.90292C3.56276 10.2487 4.55343 11.3707 5.86654 11.6265C5.62576 11.6897 5.37191 11.724 5.11013 11.724C4.92487 11.724 4.74475 11.7064 4.56929 11.6739C4.93467 12.777 5.9958 13.58 7.25245 13.6026C6.26971 14.347 5.03126 14.7914 3.68549 14.7914C3.4531 14.7914 3.22445 14.7783 3 14.7521C4.27112 15.5398 5.78068 16 7.40271 16C12.6855 16 15.5744 11.7686 15.5744 8.09941C15.5744 7.97896 15.5721 7.85896 15.566 7.7403C16.1279 7.3478 16.615 6.85875 17 6.30203Z" /></svg>