<svg width="20" height="21" viewBox="0 0 20 21" fill="none" xmlns="http://www.w3.org/2000/svg"><path fillRule="evenodd" clipRule="evenodd" d="M17 10.9982C17 12.9529 16.8142 14.1545 16.3794 14.8997C15.9403 15.6949 15.4263 15.9451 14.3771 16.0186C13.6367 16.0618 11.7784 16.0909 10.0017 16.0909C8.22099 16.0909 6.36175 16.0618 5.61457 16.0181C4.57496 15.9451 4.06083 15.6953 3.62231 14.9088C3.18632 14.1487 3 12.9422 3 11.0053C3 9.05742 3.18543 7.85694 3.6185 7.09438C4.0628 6.29757 4.58526 6.0448 5.61609 5.98449C6.3291 5.93614 8.08875 5.90909 10.0017 5.90909C11.9105 5.90909 13.6694 5.93615 14.3771 5.98412C15.4137 6.04466 15.9361 6.29687 16.3765 7.09147C16.816 7.85667 17 9.05132 17 10.9982ZM18 0H2C0.89543 0 0 0.940202 0 2.1V18.9C0 20.0598 0.89543 21 2 21H18C19.1046 21 20 20.0598 20 18.9V2.1C20 0.940202 19.1046 0 18 0ZM1 1.99988C1 1.44759 1.44772 0.999878 2 0.999878H18C18.5523 0.999878 19 1.44759 19 1.99988V18.9999C19 19.5522 18.5523 19.9999 18 19.9999H2C1.44772 19.9999 1 19.5522 1 18.9999V1.99988ZM8 8L13 11L8 14V8Z" /></svg>